<?xml version="1.0" encoding="utf-8"?>
<!-- Generator: Adobe Illustrator 19.0.0, SVG Export Plug-In . SVG Version: 6.00 Build 0)  -->
<svg version="1.1" id="layer" xmlns="http://www.w3.org/2000/svg" xmlns:xlink="http://www.w3.org/1999/xlink" x="0px" y="0px"
	 viewBox="-153 -46 652 652" style="enable-background:new -153 -46 652 652;" xml:space="preserve">
<style type="text/css">
	.st0{fill:#004837;}
	.st1{fill:#00A73C;}
</style>
<path class="st0" d="M68.9,228.2v23.3c0,6.5,2.5,10,7.9,10c5.6,0,8-3.5,8-10v-23.3h8.7V251c0,11.7-5.8,18-16.7,18
	c-10.8,0-16.6-6.4-16.6-18v-22.8H68.9z M100.1,268.7h8.5v-25.2l17.3,25.2h7.9v-40.5h-8.5v25.2l-17.3-25.2h-7.9V268.7z M149.2,228.2
	h-8.7v40.5h8.7V228.2z M152.5,228.2l13.7,40.5h10.4l13.7-40.5h-9l-9.9,30.1l-9.7-30.1H152.5z M193.6,228.2v40.5h27.9v-7.6h-19.3
	v-9.1h15.1v-7.3h-15.1v-8.8h18.6v-7.6H193.6z M226.7,228.2v40.5h8.7v-13.4h7.3l6.8,13.4h9.7l-8-15.4c4.2-2.1,6.9-6.4,6.9-11.6
	c0-8.2-6-13.5-14.9-13.5H226.7z M235.3,235.6h7.1c4.1,0,6.7,2.4,6.7,6.1c0,3.8-2.6,6.1-6.7,6.1h-7.1V235.6z M261.4,255
	c0.1,8,6.8,14,16.9,14c9,0,15.6-5.4,15.6-12.8c0-8.2-6.2-10.4-13.1-11.6c-6.5-1.2-9.9-1.9-9.9-5.1c0-3,2.6-4.5,6.2-4.5
	c4.2,0,7.1,2.5,7.5,5.9h8.5c-0.2-7.5-6.7-13.1-16-13.1c-8.6,0-14.9,5.2-14.9,12.3c0,8.2,6.2,10.5,13,11.8c6.5,1.2,9.9,1.9,9.9,5.3
	c0,3.1-3,4.7-6.8,4.7c-5,0-8.2-2.8-8.6-6.8L261.4,255z M307.7,228.2H299v40.5h8.7V228.2z M312.4,228.2v7.6h11.7v32.9h8.7v-32.9h11.7
	v-7.6H312.4z M345.9,228.2l14.9,25.5v15h8.7v-15l14.8-25.5h-9.7l-9.5,16.5l-9.1-16.5H345.9z M420.3,269c11.9,0,20.1-8.8,20.1-20.6
	c0-11.8-8.2-20.6-20.1-20.6c-11.9,0-20.1,8.8-20.1,20.6C400.2,260.3,408.4,269,420.3,269 M420.3,261.6c-6.8,0-11.2-5.6-11.2-13.1
	c0-7.6,4.4-13.1,11.2-13.1c6.8,0,11.2,5.6,11.2,13.1C431.5,256,427.1,261.6,420.3,261.6 M445.5,228.2v40.5h8.7v-16.3h14.9v-7.3
	h-14.9v-9.3h18.2v-7.6H445.5z M75.2,391.2c9,0,15.1-6.6,15.1-15.5s-6.1-15.5-15.1-15.5c-9,0-15.1,6.6-15.1,15.5
	S66.2,391.2,75.2,391.2 M75.2,385.6c-5.1,0-8.4-4.2-8.4-9.9s3.3-9.9,8.4-9.9c5.1,0,8.4,4.2,8.4,9.9S80.3,385.6,75.2,385.6
	 M94.2,390.9h18.7v-5.7h-12.2v-24.8h-6.5V390.9z M116.4,390.9h18.7v-5.7H123v-24.8h-6.5V390.9z M136.7,380.7
	c0.1,6,5.1,10.5,12.7,10.5c6.7,0,11.7-4.1,11.7-9.6c0-6.1-4.7-7.8-9.8-8.7c-4.9-0.9-7.4-1.4-7.4-3.9c0-2.3,2-3.4,4.7-3.4
	c3.2,0,5.3,1.9,5.6,4.4h6.4c-0.1-5.7-5-9.8-12-9.8c-6.5,0-11.2,3.9-11.2,9.3c0,6.1,4.7,7.9,9.8,8.9c4.9,0.9,7.4,1.4,7.4,4
	c0,2.4-2.2,3.6-5.1,3.6c-3.7,0-6.2-2.1-6.4-5.1L136.7,380.7z M178.8,360.2c-9.3,0-15,6.1-15,15.5c0,9.4,5.7,15.5,15,15.5
	c7.3,0,12.4-4.6,13.2-11.2h-6.5c-0.7,3.4-3.3,5.5-7,5.5c-5,0-8-4.1-8-9.8c0-5.8,3-9.9,8-9.9c3.7,0,6.3,2.2,7,5.6h6.5
	C191.2,364.7,186.1,360.2,178.8,360.2 M209.3,391.2c9,0,15.1-6.6,15.1-15.5s-6.1-15.5-15.1-15.5c-9,0-15.1,6.6-15.1,15.5
	S200.3,391.2,209.3,391.2 M209.3,385.6c-5.1,0-8.4-4.2-8.4-9.9s3.3-9.9,8.4-9.9c5.1,0,8.4,4.2,8.4,9.9S214.4,385.6,209.3,385.6
	 M234.8,360.5h-6.5v30.5h6.5V360.5z M239.9,390.9h18.7v-5.7h-12.2v-24.8h-6.5V390.9z M272.9,390.9h18.7v-5.7h-12.2v-24.8h-6.5V390.9
	z M292.8,360.5v17.1c0,8.8,4.4,13.6,12.5,13.6c8.1,0,12.5-4.8,12.5-13.6v-17.1h-6.5V378c0,4.9-1.8,7.5-6,7.5c-4.1,0-6-2.7-6-7.5
	v-17.5H292.8z M329.2,360.5h-6.5v30.5h6.5V360.5z M334.3,360.5v30.5h6.3v-20.1l7.8,20.1h5.4l7.8-20.1v20.1h6.3v-30.5h-8.3l-8.3,22.1
	l-8.6-22.1H334.3z M373,390.9h6.4v-19l13,19h5.9v-30.5H392v19l-13-19H373V390.9z M410,360.5h-6.5v30.5h6.5V360.5z M429.1,360.2
	c-9.4,0-15.2,6.1-15.2,15.5c0,9.4,6,15.5,14.7,15.5c4.1,0,7-1.8,8.6-3.3l0.7,3h4.7v-17.1H429v5.4h7.6v0.4c-0.5,4.3-4.1,5.9-7.6,5.9
	c-5.3,0-8.4-4-8.4-9.8c0-5.8,3.2-9.9,8.4-9.9c3.7,0,6.3,2.2,7.1,5.5h6.4C441.6,364.7,436.4,360.2,429.1,360.2 M447.7,360.4v30.5h6.5
	v-12.5h12.1v12.5h6.5v-30.5h-6.5v12.2h-12.1v-12.2H447.7z M59.9,343.2h39.5v-12H73.7v-52.3H59.9V343.2z M120.9,278.9h-13.8v64.3
	h13.8V278.9z M131.8,278.9v64.3h13.2v-42.5l16.5,42.5H173l16.5-42.5v42.5h13.2v-64.3h-17.6l-17.5,46.8l-18.1-46.8H131.8z
	 M213.8,278.9v64.3h44.4v-12.1h-30.6v-14.5h24V305h-24V291h29.5v-12H213.8z M266.5,278.9v64.3h13.8v-21.3h11.7l10.7,21.3H318
	l-12.7-24.4c6.6-3.4,10.9-10.2,10.9-18.5c0-13-9.5-21.4-23.6-21.4H266.5z M280.2,290.7h11.3c6.5,0,10.7,3.8,10.7,9.6
	c0,6-4.1,9.7-10.7,9.7h-11.3V290.7z M339.2,278.9h-13.8v64.3h13.8V278.9z M379.3,278.4c-19.6,0-31.7,13-31.7,32.7
	c0,19.8,12.1,32.7,31.7,32.7c15.3,0,26.3-9.6,27.8-23.6h-13.8c-1.6,7.1-6.9,11.7-14.8,11.7c-10.5,0-16.9-8.6-16.9-20.8
	c0-12.2,6.4-20.9,16.9-20.9c7.8,0,13.2,4.7,14.9,11.8h13.8C405.6,287.9,394.6,278.4,379.3,278.4 M415.2,278.9v64.3H429v-16.8
	l9.1-10.2l18.6,27h16.5l-25.3-37.5l23.7-26.8h-16.7L429,307.8v-28.9H415.2z"/>
<path class="st1" d="M-82.2,250.1c3.9,0,7.3-0.5,10-1.3l1.9,6.5c-2.5,0.7-5.2,1.2-8.5,1.4v12.5h-6.8v-12.5c-3.3-0.2-6-0.7-8.5-1.4
	l1.9-6.5C-89.5,249.6-86,250.1-82.2,250.1 M2.9,246.7c19.2,14.5,32.8,38.8,35.9,65c3.3,27.5-5.1,53.3-23.7,72.6
	c-8.7,9.1-24.1,22.2-47.8,33.5c-0.6,0.3-1.3,0.4-2,0.4c-0.6,0-1.3-0.1-1.9-0.4c-4.4-2-8.6-4-12.6-6.1c-12.1-6.2-22.6-12.9-31.2-19.7
	c0,0-1.5-1.3-1.5-1.3c-0.2,0-0.3,0-0.5,0c-7.1,0-11-2.1-14.1-3.9c-2.7-1.5-4.8-2.7-9.5-2.7c-0.8,0-1.6,0-2.3,0.1v-0.2v-0.2v-8.9
	v-0.2v-0.2c0.7,0,1.5-0.1,2.3-0.1c7.1,0,11,2.1,14.1,3.9c2.7,1.5,4.8,2.7,9.5,2.7c4.7,0,6.8-1.2,9.5-2.7c3.1-1.7,7-3.9,14.1-3.9
	c7.1,0,11,2.1,14.1,3.9c2.7,1.5,4.8,2.7,9.5,2.7h1v9.5h-1c-7.1,0-11-2.1-14.1-3.9c-2.7-1.5-4.8-2.7-9.5-2.7c-4.7,0-6.8,1.2-9.5,2.7
	c-0.7,0.4-1.4,0.8-2.2,1.2c7.3,5.4,15.8,10.6,25.5,15.5c3.3,1.7,6.7,3.3,10.3,5c10.6-5.2,19.4-10.8,26.5-16.1
	c-2.9-11.1-8.9-20.7-9.2-21.1c-4.6-7.1-11.3-13-19.2-17.2c-8.2-4.3-17.7-6.6-27.3-6.6c-12.5,0-24.6,3.9-34.2,10.9
	c2.5,0.8,4.5,1.8,6.2,2.8c2.7,1.5,4.8,2.7,9.5,2.7c4.7,0,6.8-1.2,9.5-2.7c3.1-1.7,7-3.9,14.1-3.9c7.1,0,11,2.1,14.1,3.9
	c2.7,1.5,4.8,2.7,9.5,2.7h1v9.5h-1c-4.7,0-6.9-1.2-9.6-2.7c-3.1-1.7-6.9-3.8-13.9-3.8c-7,0-10.9,2.1-13.9,3.8
	c-2.7,1.5-4.9,2.7-9.6,2.7c-4.7,0-6.9-1.2-9.6-2.7c-3.1-1.7-6.9-3.8-13.9-3.8c-7,0-10.9,2.1-13.9,3.8c-2.1,1.2-3.9,2.2-6.9,2.6v-0.2
	V373v-8.8V364v-0.2c2.9-0.4,4.6-1.3,6.7-2.5c2.8-1.6,6.2-3.4,12-3.8c-3.3-7.7-5.4-15.9-6.2-25.1c-0.4-4-0.4-8,0-12
	c0.2-1.9,0.3-3.9,0.5-5.8c0.2-2.6,0.5-5.2,0.7-7.8c0.3-3.1,0.5-6.2,0.8-9.2c0.3-3.4,0.6-6.8,0.9-10.1c0.3-3.5,0.6-7,0.9-10.5
	c0.3-3.4,0.6-6.9,0.9-10.3c0.3-3.2,0.6-6.4,0.8-9.7c0.2-2.8,0.5-5.6,0.7-8.4c0.2-2.2,0.4-4.5,0.6-6.7c0.1-1.5,0.3-2.9,0.4-4.4
	c0-0.5,0.1-1.1,0.1-1.6l-8.8-9.7l-1.2-3.1l0-56.9h9.2v6.1c1.2,0.6,2.2,1.3,3.2,2c2.2,1.5,3.7,2.5,7,2.5v-32.6h9.2v7.4
	c2.7,0.8,4.6,2.1,6.3,3.1c2.3,1.5,3.9,2.5,7.5,2.5c3.7,0,5.3-1.1,7.5-2.5c2.7-1.8,6.1-4,12.5-4s9.8,2.2,12.5,4
	c2.2,1.5,3.9,2.5,7.5,2.5v9.2c-6.4,0-9.8-2.2-12.5-4c-2.2-1.5-3.9-2.5-7.5-2.5c-3.7,0-5.3,1.1-7.5,2.5c-2.7,1.8-6.2,4-12.5,4
	c-6.4,0-9.8-2.2-12.5-4c-0.4-0.3-0.9-0.6-1.3-0.8V173c2.4-1.4,5.4-2.7,10.2-2.7c6.2,0,9.5,2.3,12.2,4.1c2.2,1.5,3.7,2.5,7.1,2.5v9.2
	c-6.2,0-9.5-2.3-12.2-4.1c-2.2-1.5-3.7-2.5-7.1-2.5c-3.4,0-4.9,1-7.1,2.5c-0.9,0.6-1.9,1.3-3.1,1.9v15.6h10.2v-8.3h9.2v8.3h10.2
	v-8.3h9.2v32l-1.2,3.1l-6.9,7.6l2.2,24.9l23-14.8c-4.9-1.1-9.5-3.3-13.5-6.4l6.6-6.5c5.4,3.8,11.9,5.3,18.5,4.2
	c12.1-2.1,20.8-12.8,21.6-25.2c-2,1.4-4.3,2.4-6.7,3c-1.3,0.3-2.6,0.4-3.9,0.4c-6.4,0-12.6-3.4-16.1-9.3l7.9-4.7
	c2.2,3.6,6.2,5.5,10.2,4.6c3.1-0.7,5.7-3,7-6.1c-2.6-7-7.7-12.7-14.5-15.6l3.6-8.4c11.4,4.9,19.4,15.3,21.4,28
	c2.7,17.3-6.6,33.8-21.6,40.1c3.5-0.5,7-1.6,10.3-3.2c9.1-4.5,15.9-12.4,19.1-22.5c2-6,2.5-12.5,1.5-18.8l9-1.4
	c1.2,7.7,0.6,15.6-1.8,23c-2.1,6.5-5.5,12.4-9.8,17.3c2.6,1.4,5.7,1.6,8.5,0.2c3.1-1.5,5.3-4.8,5.6-8.4h9.2
	c-0.4,7.1-4.5,13.5-10.8,16.6c-2.6,1.3-5.3,1.9-8.1,1.9c-4.1,0-8.1-1.4-11.4-4C7.3,244.2,5.2,245.5,2.9,246.7 M-107.7,199.4h10.2
	v-13.5c-4.8,0-7.8-1.3-10.2-2.8L-107.7,199.4z M-101.2,228.4h36l6.4-7.1v-12.7h-48.9v12.7L-101.2,228.4z M-80.5,314.8
	c0-12.7,10.4-23.1,23.1-23.1c0.8,0,1.5,0,2.3,0.1c-0.2-0.1-0.5-0.3-0.7-0.5l-7.1-6.6c-0.7-0.7-1.2-1.6-1.4-2.6l-2.2-13.7
	c-0.3-1.9,0.6-3.7,2.2-4.7l0.1-0.1l0,0l-2.3-26h-31.3c0,0.4-0.1,0.8-0.1,1.1c-0.1,1.3-0.2,2.6-0.4,4c-0.2,2.1-0.4,4.2-0.6,6.3
	c-0.2,2.7-0.5,5.4-0.7,8.2c-0.3,3.2-0.6,6.3-0.8,9.5c-0.3,3.4-0.6,6.8-0.9,10.2c-0.3,3.5-0.6,7-0.9,10.4c-0.3,3.4-0.6,6.8-0.9,10.1
	c-0.3,3.1-0.5,6.2-0.8,9.3c-0.2,2.6-0.5,5.3-0.7,7.9c-0.2,2-0.4,4-0.5,6c-0.3,3.7-0.4,7.3,0,11c0.6,6.5,1.8,12.4,3.8,18
	c6.3-4.2,13.3-7.3,20.8-9.1V314.8 M-43.4,314.8c0-7.7-6.3-14-14-14s-14,6.3-14,14v24.2c2.5-0.3,4.9-0.4,7.4-0.4
	c7,0,13.9,1.1,20.5,3.1V314.8z M-51.7,292.3c10,2.5,17.4,11.6,17.4,22.4v12h2.8c10.7,0,19.5-9.3,19.5-20.7c0-8.9-6-17.9-19.5-17.9
	c-5.1,0-7.3,0.2-19.9,4.1C-51.4,292.3-51.6,292.3-51.7,292.3 M8.5,378c16.6-17.3,24.2-40.4,21.2-65.2c-3.1-25.7-17.1-49.3-36.5-61.7
	c-0.2-0.1-0.6-0.4-1.1-0.6c-3,0.6-6,1-9.1,1c-3,0-6.1-0.3-9.1-1l-19.4,12.6c-0.1,0-0.1,0.1-0.2,0.1l-11.3,6.6l1.5,9.1l4,3.7
	c11.2-3.5,14.3-3.8,20.1-3.8c25.4,0,44.6,18.9,44.6,43.9H4c0-8.2-2.5-15.7-7.2-21.7c0.3,1.6,0.4,3.2,0.4,4.9
	c0,16.5-12.8,29.9-28.6,29.9h-2.8v9.3c0.7,0.3,1.3,0.6,1.9,1c9.3,4.9,17.1,11.9,22.6,20.3l0,0c0.3,0.5,5.7,9,9.2,19.9
	C3.1,383.4,6.1,380.5,8.5,378"/>
</svg>
